<?xml version="1.0" encoding="iso-8859-1"?>
<!-- Generator: Adobe Illustrator 16.0.0, SVG Export Plug-In . SVG Version: 6.00 Build 0)  -->
<!DOCTYPE svg PUBLIC "-//W3C//DTD SVG 1.1//EN" "http://www.w3.org/Graphics/SVG/1.1/DTD/svg11.dtd">
<svg version="1.1" id="Capa_1" xmlns="http://www.w3.org/2000/svg" xmlns:xlink="http://www.w3.org/1999/xlink" x="0px" y="0px"
	 width="612px" height="612px" viewBox="0 0 612 612" style="enable-background:new 0 0 612 612;" xml:space="preserve">
<g>
	<g>
		<path d="M490.516,206.278c-4.38,0-8.865,0.302-13.532,0.906c-26.626-67.207-90.358-111.26-163.409-111.26
			c-63.038,0-121.395,34.313-152.747,88.637C74.788,165.244,0,232.723,0,315.394c0,73.852,60.048,133.944,133.869,133.944h44.054
			l9.726-36.926h-53.78c-53.448,0-96.943-43.51-96.943-97.003c0-53.463,43.495-96.958,96.943-96.958
			c9.621,0,19.619,1.782,30.568,5.452c8.986,2.96,18.667-1.208,22.608-9.741c22.896-49.385,72.538-81.282,126.514-81.282
			c62.178,0,115.807,40.475,133.461,100.719c2.824,9.56,12.701,15.299,22.367,12.671c8.05-2.069,14.755-3.036,21.113-3.036
			c46.622,0,84.544,37.938,84.544,84.589c0,46.651-37.922,84.604-84.544,84.604h-59.896l-9.711,36.896h69.623
			c66.979,0,121.484-54.521,121.484-121.53S557.495,206.278,490.516,206.278z"/>
		<path d="M390.325,369.536c-1.435-0.377-2.885-0.573-4.244-0.573c-7.294,0-14.075,4.983-16.1,12.429l-8.14,31.021l-9.711,36.911
			l-3.579,13.607c-2.312,8.88,2.96,17.972,11.825,20.298c1.449,0.377,2.809,0.559,4.259,0.559c7.354,0,14.075-4.938,16.1-12.414
			l5.784-22.05l9.695-36.926l5.936-22.578C404.461,380.954,399.19,371.862,390.325,369.536z"/>
		<path d="M330.368,329.183c-1.435-0.393-2.885-0.574-4.319-0.574c-7.445,0-14,5.014-15.948,12.43l-18.743,71.359l-9.726,36.926
			l-12.067,45.896c-2.311,8.88,2.945,17.957,11.826,20.298c1.45,0.377,2.884,0.559,4.259,0.559c7.355,0,14.061-4.938,16.069-12.399
			l14.288-54.339l9.711-36.926l16.552-62.917C344.595,340.6,339.248,331.523,330.368,329.183z"/>
		<path d="M250.46,369.536c-1.375-0.377-2.824-0.573-4.259-0.573c-7.294,0-14.076,4.983-16.024,12.429l-8.17,31.006l-9.726,36.926
			l-3.579,13.607c-2.326,8.88,3.021,17.972,11.9,20.298c1.375,0.377,2.809,0.559,4.184,0.559c7.431,0,14.151-4.938,16.084-12.414
			l5.8-22.05l9.741-36.926l5.951-22.578C264.657,380.954,259.311,371.862,250.46,369.536z"/>
	</g>
</g>
<g>
</g>
<g>
</g>
<g>
</g>
<g>
</g>
<g>
</g>
<g>
</g>
<g>
</g>
<g>
</g>
<g>
</g>
<g>
</g>
<g>
</g>
<g>
</g>
<g>
</g>
<g>
</g>
<g>
</g>
</svg>
